# xmcd
#
# Track frame offsets: 
#        150
#        18794
#        33015
#        53833
#        67323
#        85596
#        107510
#        124910
#        142481
#        160136
#        180185
#        195179
#        210497
#        227272
#        245985
#        267303
#        289214
#        301154
#
# Disc length: 4173 seconds
#
# Revision: 3
# Processed by: cddbd v1.5.1PL0 Copyright (c) Steve Scherf et al.
# Submitted via: ExactAudioCopy v0.95a3
#
DISCID=f1104b12
DTITLE=José Feliciano - Che Sera
DYEAR=2000
DGENRE=Ballad
TTITLE0=Che Sara
TTITLE1=Light My Fire
TTITLE2=Hi-Heel Sneakers
TTITLE3=La Bamba
TTITLE4=California Dreamin'
TTITLE5=Jealous Guy
TTITLE6=Samba Pati
TTITLE7=This Could Be The Last Time
TTITLE8=Daniel
TTITLE9=Right Here Waiting
TTITLE10=Time After Time
TTITLE11=In My Life
TTITLE12=Angela
TTITLE13=You Send Me
TTITLE14=Stay With Me
TTITLE15=Affirmation
TTITLE16=Pegao
TTITLE17=Rain
EXTD=
EXTT0=
EXTT1=
EXTT2=
EXTT3=
EXTT4=
EXTT5=
EXTT6=
EXTT7=
EXTT8=
EXTT9=
EXTT10=
EXTT11=
EXTT12=
EXTT13=
EXTT14=
EXTT15=
EXTT16=
EXTT17=
PLAYORDER=
